<?xml version="1.0" standalone="no"?>
<!DOCTYPE svg PUBLIC "-//W3C//DTD SVG 20010904//EN"
 "http://www.w3.org/TR/2001/REC-SVG-20010904/DTD/svg10.dtd">
<svg version="1.0" xmlns="http://www.w3.org/2000/svg"
 width="1000.000000pt" height="1000.000000pt" viewBox="0 0 1000.000000 1000.000000"
 preserveAspectRatio="xMidYMid meet">
<metadata>
Created by potrace 1.14, written by Peter Selinger 2001-2017
</metadata>
<g transform="translate(0.000000,1000.000000) scale(0.100000,-0.100000)"
fill="#000000" stroke="none">
<path d="M4735 9664 c-1168 -78 -2223 -552 -3035 -1364 -1486 -1487 -1798
-3780 -762 -5610 689 -1217 1911 -2074 3287 -2304 290 -49 437 -60 780 -60
343 0 490 11 780 60 1825 305 3313 1684 3755 3479 187 760 187 1500 0 2260
-365 1481 -1449 2701 -2885 3245 -357 135 -765 231 -1165 275 -139 15 -626 27
-755 19z m-1851 -3514 c533 -938 687 -1236 901 -1745 37 -88 72 -164 77 -170
7 -7 9 7 5 40 -9 72 -35 393 -48 580 -6 88 -13 591 -16 1118 l-5 957 396 0
396 0 0 -1905 0 -1905 -453 0 -452 0 -452 813 c-248 446 -488 882 -534 967
-110 206 -340 677 -425 872 -38 87 -73 158 -77 158 -5 0 -6 -51 -3 -112 18
-302 26 -859 26 -1735 l0 -963 -395 0 -395 0 0 1905 0 1905 506 -2 507 -3 441
-775z m3096 -760 l0 -1540 758 -2 757 -3 3 -362 2 -363 -1195 0 -1195 0 0
1905 0 1905 435 0 435 0 0 -1540z m2384 -1309 c209 -74 326 -253 326 -501 0
-161 -44 -275 -145 -376 -68 -69 -136 -107 -227 -129 -344 -81 -638 152 -638
505 0 148 46 273 137 371 76 81 151 123 268 149 64 14 212 4 279 -19z"/>
</g>
</svg>
